<?xml version="1.0" encoding="UTF-8"?>
<svg id="gopher" viewBox="0 0 272 282" xmlns="http://www.w3.org/2000/svg" xmlns:xlink="http://www.w3.org/1999/xlink" style="fill-rule:evenodd;clip-rule:evenodd;stroke-linecap:round;stroke-linejoin:round;stroke-miterlimit:1.5"><g transform="matrix(1.09329,0,0,1.09329,-135.183,-11.6982)"><path class="gopher-cape animated" d="M167.376 132.778C165.4 163.47 157.387 172.184 150.142 191.552 140.361 210.573 133.102 214.357 127.626 223.012 131.508 226.814 144.79 238.814 159.006 243.911 199.917 251.86 250.261 251.499 284.105 243.911 312.297 238.453 330.566 241.986 350.858 258.146 352.025 218.523 351.604 171.276 333.752 132.778" style="fill:#c9177e;stroke:#c9177e;stroke-width:4px"></path></g><g transform="matrix(1.09329,0,0,1.09329,20.0647,-11.6982)"><path d="M207.3 44.6C200.6 30.9 184.4 43 180.3 38.7 159.3 17.1 133.9 11.7 114 10.7H103C83 11.2 57.6 17 36.7 38.7 32.6 43 16.3 30.9 9.7 44.6 2 60.6 25.4 62.2 24.2 69.3 21.9 82.1 23.4 101.1 25.2 119.8 28 151.5 4.3 227.4 53.6 257.9 62.9 263.7 88 266.9 109.8 267.4H110C131.8 266.9 153.9 263.7 163.2 257.9 212.6 227.4 188.9 151.5 191.8 119.8 193.5 101.1 195 82.1 192.8 69.3 191.6 62.2 215 60.5 207.3 44.6z" style="fill:#8cc5e7;fill-rule:nonzero"></path></g><g transform="matrix(1.09329,0,0,1.09329,20.0647,-11.6982)"><path d="M143.2 54.3C109.8 58.2 114.3 93 127.2 104.3 151.2 125.3 176.2 104.3 173.4 83.1 170.9 62.7 153.6 53.1 143.2 54.3z" style="fill:#e0dedc;fill-rule:nonzero"></path></g><g transform="matrix(1.09329,0,0,1.09329,20.0647,-11.6982)"><path class="eyes" d="M145.5 72.9C151.792 72.9 156.9 78.008 156.9 84.3 156.9 90.592 151.792 95.7 145.5 95.7 139.208 95.7 134.1 90.592 134.1 84.3 134.1 78.008 139.208 72.9 145.5 72.9zM71.356 72.746C77.648 72.746 82.756 77.854 82.756 84.146 82.756 90.438 77.648 95.546 71.356 95.546 65.064 95.546 59.956 90.438 59.956 84.146 59.956 77.854 65.064 72.746 71.356 72.746z" style="fill:#111212"></path></g><g transform="matrix(1.09329,0,0,1.09329,20.0647,-11.6982)"><path d="M142.5 75.8C144.487 75.8 146.1 77.413 146.1 79.4 146.1 81.387 144.487 83 142.5 83 140.513 83 138.9 81.387 138.9 79.4 138.9 77.413 140.513 75.8 142.5 75.8zM74.274 75.192C76.261 75.192 77.874 76.805 77.874 78.792 77.874 80.779 76.261 82.392 74.274 82.392 72.287 82.392 70.674 80.779 70.674 78.792 70.674 76.805 72.287 75.192 74.274 75.192z" style="fill:#fff"></path></g><g transform="matrix(1.09329,0,0,1.09329,20.0647,-11.6982)"><path d="M108.5 107C92.5 109.4 86.8 114 88 121.2 90 133 127.7 131.7 128.9 121.8 129.9 113.3 114.8 106.1 108.5 107z" style="fill:#b8937f;fill-rule:nonzero"></path></g><g transform="matrix(1.09329,0,0,1.09329,20.0647,-11.6982)"><path d="M98.2 111.8C95.5 121.6 119.9 120.1 119.3 113.8 119 110.1 115.7 105.4 107 105.6 103.6 105.7 99.4 107.2 98.2 111.8z" style="fill-rule:nonzero"></path></g><g transform="matrix(1.09329,0,0,1.09329,20.0647,-11.6982)"><path d="M99 127.7C98.1 128.1 96.6 137.9 101.2 138.4 104.3 138.7 112.8 139.7 114.8 138.4 118.7 135.9 118.3 129.9 116.1 128.4 112.4 126 1e2 127.2 99 127.7zM73.6 54.3C107 58.2 102.5 93 89.6 104.3 65.6 125.3 40.6 104.3 43.4 83.1 46 62.7 63.3 53.1 73.6 54.3z" style="fill:#e0dedc;fill-rule:nonzero"></path></g><g transform="matrix(1.09329,0,0,1.09329,20.0647,-11.6982)"><circle class="eyes" cx="71.4" cy="84.3" r="11.4" style="fill:#111212"></circle></g><g transform="matrix(1.09329,0,0,1.09329,20.0647,-11.6982)"><circle cx="74.4" cy="79.4" r="3.6" style="fill:#fff"></circle></g><g transform="matrix(1.09329,0,0,1.09329,20.0647,-11.6982)"><path d="M193.6 186.7C204.6 186.8 199.2 163.2 192.4 167.9 189.1 170.2 188.5 175.5 188.5 180 188.5 182.5 190.5 186.6 193.6 186.7zM23.3 186.7C12.3 186.8 17.7 163.2 24.5 167.9 27.8 170.2 28.4 175.5 28.4 180 28.4 182.5 26.4 186.6 23.3 186.7zM172.7 259.2C166.7 250.3 161.3 257.2 152.6 261.6 148.5 263.7 159.4 271.2 171.6 265.6 174.8 264.1 174.7 262.1 172.7 259.2zm-128.5 1C50.2 251.3 55.6 258.2 64.3 262.6 68.4 264.7 57.5 272.2 45.3 266.6 42.1 265.1 42.2 263.1 44.2 260.2z" style="fill:#b8937f;fill-rule:nonzero"></path></g><g transform="matrix(1.09329,0,0,1.09329,20.0647,-11.6982)"><path d="M188.6 47C188 49.1 190.7 48.8 191.7 55.3 192.1 57.7 200.7 51.8 197.2 47.5 194.3 43.9 189.1 44.9 188.6 47zM28.3 47C28.9 49.1 26.2 48.8 25.2 55.3 24.8 57.7 16.2 51.8 19.7 47.5 22.5 43.9 27.7 44.9 28.3 47z" style="fill:#0083c0;fill-rule:nonzero"></path></g><g transform="matrix(0.219817,0,0,0.219817,92.037,155.985)"><g transform="matrix(2.08706,0,0,2.08706,-39.3863,-48.2414)"><path class="gopher-badge animated" d="M119.631 36.154l84.191 48.912V181.395L119.631 229.184 35.578 181.395V85.066l84.053-48.912z" style="fill:#ff4088"></path><path class="gopher-badge animated" d="M207.664 81.239 209.061 83.666v99.143L207.638 185.253 121.013 234.423 118.245 234.422 31.761 185.251 30.34 182.808V83.667L31.735 81.242 118.217 30.916 121.041 30.915 207.664 81.239zM40.817 88.078V178.348L119.633 223.159 198.584 178.345V88.081L119.633 42.214 40.817 88.078z" style="fill:#c9177e"></path></g><g transform="matrix(1.95678,0,0,2.21729,-55.1262,110.024)"><path class="gopher-badge animated" d="M179.238 106.552H154.758V62.2H112.134V106.552H87.654V1.648H112.134V45.496H154.758V1.648H179.238V106.552z" style="fill:#fff;fill-rule:nonzero"></path></g></g><g transform="matrix(1.09329,0,0,1.09329,-135.318,-8.1299)"><path class="gopher-cape animated" d="M167.5 129.514C184.792 131.141 216.708 134.608 250.124 148.407 283.576 136.181 294.915 129.585 333.876 129.514" style="fill:none;stroke:#c9177e;stroke-width:4px"></path></g><g transform="matrix(1,0,0,1,-1.47026,0)"><g transform="matrix(1.09203,0,0,1,-11.2404,3.14785)"><path class="gopher-cape animated" d="M103.229 44.41C127.646 44.41 141.964 60.067 145.637 76.405 149.492 93.554 120.688 108.4 96.272 108.4 71.856 108.4 58.627 77.601 58.627 59.942 58.627 42.284 78.813 44.41 103.229 44.41zM103.229 59.942C117.928 59.942 128.366 65.775 128.366 76.405 128.366 87.035 117.928 95.666 103.229 95.666 88.531 95.666 75.079 82.622 75.079 71.992 75.079 61.361 88.531 59.942 103.229 59.942z" style="fill:#c9177e"></path></g><g transform="matrix(1.05263,0,0,1,75.8327,3.14785)"><path class="gopher-cape animated" d="M101.398 44.41C125.814 44.41 141.107 42.439 141.107 60.097 141.107 77.755 125.814 108.4 101.398 108.4 76.982 108.4 57.159 94.063 57.159 76.405 57.159 58.747 76.982 44.41 101.398 44.41zM98.548 60.097C113.14 60.097 125.888 60.912 125.888 71.466 125.888 82.019 113.14 95.527 98.548 95.527 83.955 95.527 72.108 86.959 72.108 76.405 72.108 65.851 83.955 60.097 98.548 60.097z" style="fill:#c9177e"></path></g></g></svg>